<mxfile host="app.diagrams.net" modified="2024-01-07T13:41:48.605Z" agent="Mozilla/5.0 (Windows NT 10.0; Win64; x64) AppleWebKit/537.36 (KHTML, like Gecko) Chrome/120.0.0.0 Safari/537.36" etag="8AyffRym6xndxfRvd-Mx" version="22.1.17" type="device">
  <diagram name="第 1 页" id="oZHfy60B06Gg_I67x8Qi">
    <mxGraphModel dx="1034" dy="459" grid="1" gridSize="10" guides="1" tooltips="1" connect="1" arrows="1" fold="1" page="1" pageScale="1" pageWidth="827" pageHeight="1169" math="0" shadow="0">
      <root>
        <mxCell id="0" />
        <mxCell id="1" parent="0" />
        <mxCell id="KL-YzWmICsVjGZMYXzRP-53" value="Actor" style="shape=umlActor;verticalLabelPosition=bottom;verticalAlign=top;html=1;outlineConnect=0;" vertex="1" parent="1">
          <mxGeometry x="320" y="180" width="30" height="60" as="geometry" />
        </mxCell>
        <mxCell id="KL-YzWmICsVjGZMYXzRP-54" value="&lt;font style=&quot;vertical-align: inherit;&quot;&gt;&lt;font style=&quot;vertical-align: inherit;&quot;&gt;信息管理&lt;/font&gt;&lt;/font&gt;" style="rounded=1;whiteSpace=wrap;html=1;" vertex="1" parent="1">
          <mxGeometry x="500" y="250" width="120" height="60" as="geometry" />
        </mxCell>
        <mxCell id="KL-YzWmICsVjGZMYXzRP-62" style="edgeStyle=orthogonalEdgeStyle;rounded=0;orthogonalLoop=1;jettySize=auto;html=1;exitX=0.5;exitY=1;exitDx=0;exitDy=0;" edge="1" parent="1" source="KL-YzWmICsVjGZMYXzRP-55" target="KL-YzWmICsVjGZMYXzRP-61">
          <mxGeometry relative="1" as="geometry" />
        </mxCell>
        <mxCell id="KL-YzWmICsVjGZMYXzRP-55" value="&lt;font style=&quot;vertical-align: inherit;&quot;&gt;&lt;font style=&quot;vertical-align: inherit;&quot;&gt;登入&lt;/font&gt;&lt;/font&gt;" style="rounded=1;whiteSpace=wrap;html=1;" vertex="1" parent="1">
          <mxGeometry x="90" y="340" width="120" height="60" as="geometry" />
        </mxCell>
        <mxCell id="KL-YzWmICsVjGZMYXzRP-64" style="edgeStyle=orthogonalEdgeStyle;rounded=0;orthogonalLoop=1;jettySize=auto;html=1;exitX=0.5;exitY=0;exitDx=0;exitDy=0;entryX=0.5;entryY=1;entryDx=0;entryDy=0;" edge="1" parent="1" source="KL-YzWmICsVjGZMYXzRP-56" target="KL-YzWmICsVjGZMYXzRP-54">
          <mxGeometry relative="1" as="geometry" />
        </mxCell>
        <mxCell id="KL-YzWmICsVjGZMYXzRP-56" value="&lt;font style=&quot;vertical-align: inherit;&quot;&gt;&lt;font style=&quot;vertical-align: inherit;&quot;&gt;&lt;br&gt;訂單核對&lt;/font&gt;&lt;/font&gt;" style="rounded=1;whiteSpace=wrap;html=1;" vertex="1" parent="1">
          <mxGeometry x="50" y="510" width="120" height="60" as="geometry" />
        </mxCell>
        <mxCell id="KL-YzWmICsVjGZMYXzRP-65" style="edgeStyle=orthogonalEdgeStyle;rounded=0;orthogonalLoop=1;jettySize=auto;html=1;exitX=0.5;exitY=0;exitDx=0;exitDy=0;" edge="1" parent="1" source="KL-YzWmICsVjGZMYXzRP-57" target="KL-YzWmICsVjGZMYXzRP-53">
          <mxGeometry relative="1" as="geometry" />
        </mxCell>
        <mxCell id="KL-YzWmICsVjGZMYXzRP-66" style="edgeStyle=orthogonalEdgeStyle;rounded=0;orthogonalLoop=1;jettySize=auto;html=1;exitX=0;exitY=0.5;exitDx=0;exitDy=0;" edge="1" parent="1" source="KL-YzWmICsVjGZMYXzRP-57" target="KL-YzWmICsVjGZMYXzRP-56">
          <mxGeometry relative="1" as="geometry" />
        </mxCell>
        <mxCell id="KL-YzWmICsVjGZMYXzRP-57" value="&lt;font style=&quot;vertical-align: inherit;&quot;&gt;&lt;font style=&quot;vertical-align: inherit;&quot;&gt;&lt;br&gt;店面主頁&lt;/font&gt;&lt;/font&gt;" style="rounded=1;whiteSpace=wrap;html=1;" vertex="1" parent="1">
          <mxGeometry x="550" y="490" width="120" height="60" as="geometry" />
        </mxCell>
        <mxCell id="KL-YzWmICsVjGZMYXzRP-58" style="edgeStyle=orthogonalEdgeStyle;rounded=0;orthogonalLoop=1;jettySize=auto;html=1;exitX=0.5;exitY=0;exitDx=0;exitDy=0;entryX=0.5;entryY=0.5;entryDx=0;entryDy=0;entryPerimeter=0;" edge="1" parent="1" source="KL-YzWmICsVjGZMYXzRP-55" target="KL-YzWmICsVjGZMYXzRP-53">
          <mxGeometry relative="1" as="geometry" />
        </mxCell>
        <mxCell id="KL-YzWmICsVjGZMYXzRP-59" style="edgeStyle=orthogonalEdgeStyle;rounded=0;orthogonalLoop=1;jettySize=auto;html=1;exitX=1;exitY=0.5;exitDx=0;exitDy=0;entryX=-0.011;entryY=0.394;entryDx=0;entryDy=0;entryPerimeter=0;" edge="1" parent="1" source="KL-YzWmICsVjGZMYXzRP-55" target="KL-YzWmICsVjGZMYXzRP-54">
          <mxGeometry relative="1" as="geometry" />
        </mxCell>
        <mxCell id="KL-YzWmICsVjGZMYXzRP-60" style="edgeStyle=orthogonalEdgeStyle;rounded=0;orthogonalLoop=1;jettySize=auto;html=1;exitX=1;exitY=0.75;exitDx=0;exitDy=0;" edge="1" parent="1" source="KL-YzWmICsVjGZMYXzRP-55">
          <mxGeometry relative="1" as="geometry">
            <mxPoint x="550" y="510" as="targetPoint" />
          </mxGeometry>
        </mxCell>
        <mxCell id="KL-YzWmICsVjGZMYXzRP-67" style="edgeStyle=orthogonalEdgeStyle;rounded=0;orthogonalLoop=1;jettySize=auto;html=1;exitX=1;exitY=0;exitDx=0;exitDy=0;entryX=0.25;entryY=1;entryDx=0;entryDy=0;" edge="1" parent="1" source="KL-YzWmICsVjGZMYXzRP-61" target="KL-YzWmICsVjGZMYXzRP-54">
          <mxGeometry relative="1" as="geometry" />
        </mxCell>
        <mxCell id="KL-YzWmICsVjGZMYXzRP-61" value="&lt;font style=&quot;vertical-align: inherit;&quot;&gt;&lt;font style=&quot;vertical-align: inherit;&quot;&gt;處理訂單&lt;/font&gt;&lt;/font&gt;" style="rounded=1;whiteSpace=wrap;html=1;" vertex="1" parent="1">
          <mxGeometry x="280" y="555" width="120" height="60" as="geometry" />
        </mxCell>
      </root>
    </mxGraphModel>
  </diagram>
</mxfile>
